<?xml version="1.0" encoding="UTF-8" standalone="no"?>
<svg width="46px" height="45px" viewBox="0 0 46 45" version="1.1" xmlns="http://www.w3.org/2000/svg" xmlns:xlink="http://www.w3.org/1999/xlink" xmlns:sketch="http://www.bohemiancoding.com/sketch/ns">
    <!-- Generator: Sketch 3.4.2 (15857) - http://www.bohemiancoding.com/sketch -->
    <title>Slice 1</title>
    <desc>Created with Sketch.</desc>
    <defs>
        <linearGradient x1="21.3205307%" y1="21.3613986%" x2="84.6374302%" y2="84.7668531%" id="linearGradient-1">
            <stop stop-color="#FFFFFF" offset="0%"></stop>
            <stop stop-color="#BFC8D2" offset="100%"></stop>
        </linearGradient>
    </defs>
    <g id="Page-1" stroke="none" stroke-width="1" fill="none" fill-rule="evenodd" sketch:type="MSPage">
        <g id="XMLID_181_" sketch:type="MSLayerGroup">
            <path d="M42.728051,12.1875 L32.5785726,12.1875 L32.5785726,2.0625 C32.5785726,0.9375 31.7014572,0 30.5737374,0 L14.2844511,0 C13.1567312,0 12.2169647,0.9375 12.2169647,2.0625 L12.2169647,12.1875 L2.06748634,12.1875 C0.939766518,12.1875 0,13.125 0,14.25 L0,30.5 C0,31.625 0.939766518,32.5 2.06748634,32.5 L12.2169647,32.5 L12.2169647,42.625 C12.2169647,43.75 13.1567312,44.6875 14.2844511,44.6875 L30.5737374,44.6875 C31.7014572,44.6875 32.6412237,43.75 32.6412237,42.625 L32.6412237,32.5 L42.7907021,32.5 C43.9184219,32.5 44.8581884,31.5625 44.8581884,30.4375 L44.8581884,14.1875 C44.7955373,13.0625 43.8557708,12.1875 42.728051,12.1875 L42.728051,12.1875 Z" id="XMLID_164_" fill="url(#linearGradient-1)" sketch:type="MSShapeGroup"></path>
            <path d="M42.728051,12.1875 L32.5785726,12.1875 L32.5785726,2.0625 C32.5785726,0.9375 31.7014572,0 30.5737374,0 L14.2844511,0 C13.1567312,0 12.2169647,0.9375 12.2169647,2.0625 L12.2169647,12.1875 L2.06748634,12.1875 C0.939766518,12.1875 0,13.125 0,14.25 L0,30.5 C0,31.625 0.939766518,32.5 2.06748634,32.5 L12.2169647,32.5 L12.2169647,42.625 C12.2169647,43.75 13.1567312,44.6875 14.2844511,44.6875 L30.5737374,44.6875 C31.7014572,44.6875 32.6412237,43.75 32.6412237,42.625 L32.6412237,32.5 L42.7907021,32.5 C43.9184219,32.5 44.8581884,31.5625 44.8581884,30.4375 L44.8581884,14.1875 C44.7955373,13.0625 43.8557708,12.1875 42.728051,12.1875 L42.728051,12.1875 Z M42.7907021,29.3125 C42.7907021,29.9375 42.2894933,30.4375 41.6629823,30.4375 L30.5110863,30.4375 L30.5110863,41.5 C30.5110863,42.125 30.0098775,42.625 29.3833665,42.625 L15.3495198,42.625 C14.7230088,42.625 14.2218,42.125 14.2218,41.5 L14.2218,30.4375 L3.13255506,30.4375 C2.50604405,30.4375 2.00483524,29.9375 2.00483524,29.3125 L2.00483524,15.375 C2.00483524,14.75 2.50604405,14.25 3.13255506,14.25 L14.2218,14.25 L14.2218,3.125 C14.2218,2.5 14.7230088,2 15.3495198,2 L29.3207154,2 C29.9472264,2 30.4484352,2.5 30.4484352,3.125 L30.4484352,14.1875 L41.5376801,14.1875 C42.1641911,14.1875 42.6653999,14.6875 42.6653999,15.3125 L42.6653999,29.3125 L42.7907021,29.3125 Z" id="XMLID_184_" fill="#D42328" sketch:type="MSShapeGroup"></path>
            <path d="M38.5930783,22.25 L34.5207567,19.1875 L35.1472678,21.125 L26.000207,20.5 C26.3134625,21.0625 26.4387647,21.6875 26.4387647,22.375 C26.4387647,23 26.3134625,23.625 26.0628581,24.125 L35.1472678,23.4375 L34.5207567,25.375 L38.5930783,22.25 L38.5930783,22.25 Z" id="XMLID_161_" fill="#231F20" sketch:type="MSShapeGroup"></path>
            <path d="M24.4339295,22.1875 L24.4339295,22.0625 L23.556814,7.375 L25.4989982,8 L22.4290942,3.9375 L19.3591903,8 L21.3013744,7.375 L20.4869101,22.0625 C20.4869101,22.0625 20.4869101,22.0625 20.4869101,22.125 L20.4869101,22.25 L20.4869101,22.25 C20.4869101,23.375 21.3640255,24.25 22.4917453,24.25 C23.6194651,24.25 24.4965806,23.375 24.4965806,22.25 L24.4965806,22.25 L24.4965806,22.25 L24.4339295,22.1875 L24.4339295,22.1875 Z" id="XMLID_159_" fill="#231F20" sketch:type="MSShapeGroup"></path>
        </g>
    </g>
</svg>